<svg class="logo__icon" viewBox="0 0 24 24" xmlns="http://www.w3.org/2000/svg" xmlns:xlink= "http://www.w3.org/1999/xlink"><g transform="matrix(0.04219666,0,0,0.04223411,1.4991778,1.4991228)"><path d="m 458.16,399.64 c -12.53,-22.33 -25.85,-44.49 -45.37,-61.24 -11,-9.48 -24,-16.82 -36.57,-24.41 -29,-17.53 -60.4,-30 -91.32,-43.58 -39.71,-17.39 -77,-38.92 -111.13,-65.71 -19.24,-15.08 -37.6,-31.16 -53.56,-49.74 C 95.88,126.64 77.92,94.51 65.21,59.54 59.74,44.63 55.72,29.21 51.1,14 A 9.8,9.8 0 0 1 51,8.38 c 3.44,3.16 6.77,6.46 10.35,9.46 24.58,20.62 33.35,38.44 73.26,66.64 46.91,32.92 51.48,32.58 78.83,48.44 12.24,7.09 25.35,12.67 37.86,19.32 17.65,9.38 35.47,18.52 52.54,28.87 20.72,12.56 41.36,25.43 60.94,39.66 38.9,28.3 71.12,63 95.4,104.78 a 397.45,397.45 0 0 1 28.53,61.77 c 7.47,20.38 9.77,40 13.32,72.65 1.65,9.78 2.35,35 3.44,44.92 z" style="fill:#020202" transform="translate(-7.77,-7.62)" /><path d="m 473.55,433.86 c 2.44,4.58 31.63,67.94 31.93,71 a 76.52,76.52 0 0 1 -7.31,-11.43 c -5.3,-2.69 -41.7,-43.62 -45,-47.44 A 210.11,210.11 0 0 0 437.84,431.4 c -24.51,-18.63 -51,-33.86 -80.58,-42.65 -16,-4.75 -32.63,-7.42 -49.06,-10.65 -16.59,-3.26 -33.32,-5.88 -49.93,-9.07 -17.77,-3.41 -35.6,-6.65 -53.18,-10.89 A 194.25,194.25 0 0 1 142.61,331 c -38.86,-25.8 -67,-61 -90.34,-100.64 a 487.45,487.45 0 0 1 -43,-95.11 c -0.32,-1 -0.74,-1.91 -1.12,-2.86 A 3.09,3.09 0 0 1 8,129.73 a 11.94,11.94 0 0 1 2.15,2 328.12,328.12 0 0 0 82.85,86.65 c 27,19.61 56.23,35.37 88.24,44.94 20.26,6.06 41.17,10 61.9,14.38 30.64,6.44 61.39,12.48 90.77,23.58 15,5.67 30,11.67 44.32,18.77 19.58,9.67 41.66,31.23 47.45,37.35 9.48,10.63 17,17.92 27,35.79 12.58,24.36 7.94,15.41 20.87,40.67 z" transform="translate(-7.77,-7.62)" style="fill:#020202" /><path d="m 479.3,470.6 a 330.21,330.21 0 0 1 22.58,27.8 c 1.42,2.41 2.44,4.27 3.6,6.49 -4.69,-1.11 -9.4,-2.13 -14.06,-3.36 C 474.6,497.1 458,491.85 441,488.29 c -25.72,-5.38 -51.57,-10.38 -77.57,-14.05 -16.35,-2.31 -33.07,-2.2 -49.64,-2.63 -23.11,-0.6 -46.29,0.07 -69.36,-1.25 -20.43,-1.16 -41,-3 -61,-6.88 -26.18,-5 -49.31,-17.58 -70.31,-34.1 -23.56,-18.54 -42.32,-41.19 -58.4,-66.28 -15.87,-24.75 -28,-51.3 -38.4,-78.73 -0.19,-0.49 0,-1.1 0,-2.89 4.88,6.52 9,12.17 13.24,17.67 a 197.55,197.55 0 0 0 53.33,47.44 223,223 0 0 0 46.79,21.69 c 17.3,5.75 35,10.35 53.34,11.44 26.43,1.57 52.92,2.37 79.32,4.39 21.59,1.66 43.2,3.88 64.59,7.21 27.4,4.26 54,12 78.83,24.57 10.78,5.43 13.74,7 31.34,18.55 17.6,11.55 42.2,36.16 42.2,36.16 z" transform="translate(-7.77,-7.62)" style="fill:#26a2a9" /><path d="M 50.41,8 50,8.34 C 49.89,8.22 49.69,8.08 49.7,7.96 49.71,7.84 49.92,7.73 50.04,7.62 Z" transform="translate(-7.77,-7.62)" style="fill:#020202" /></g></svg>